<?xml version="1.0" standalone="no"?><!DOCTYPE svg PUBLIC "-//W3C//DTD SVG 1.1//EN" "http://www.w3.org/Graphics/SVG/1.1/DTD/svg11.dtd"><svg t="1527822684206" class="icon" style="" viewBox="0 0 1024 1024" version="1.1" xmlns="http://www.w3.org/2000/svg" p-id="1587" data-spm-anchor-id="a313x.7781069.0.i10" xmlns:xlink="http://www.w3.org/1999/xlink" width="400" height="400"><defs><style type="text/css"></style></defs><path d="M762.8 378.5H190.2c-34.2 0-62-27.3-62-60.8V266c0-33.5 27.8-60.8 62-60.8h572.6c34.2 0 62 27.3 62 60.8v51.7c0 33.5-27.9 60.8-62 60.8zM190.2 238.7c-15.4 0-27.8 12.2-27.8 27.3v51.7c0 15 12.5 27.3 27.8 27.3h572.6c15.4 0 27.8-12.2 27.8-27.3V266c0-15-12.5-27.3-27.8-27.3H190.2z m0 0" p-id="1588" fill="#cdcdcd"></path><path d="M716.3 346H254c-41.6 0-75.6 34-75.6 75.6v304.2c0 32.6 26.6 59.2 59.3 59.2h341.7c9 0 16.3-7.3 16.3-16.3s-7.3-16.3-16.3-16.3H237.7c-14.8 0-26.8-12-26.8-26.8V405.2c0-14.7 12-26.8 26.8-26.8h478.6c14.8 0 26.8 12 26.8 26.8v189.5c0 9 7.3 16.3 16.3 16.3s16.3-7.3 16.3-16.3V405.2c-0.1-32.6-26.7-59.2-59.4-59.2zM655.1 785c-0.2-0.1-0.4-0.3-0.6-0.4 0.2 0.2 0.4 0.3 0.6 0.4zM769.9 661.1h-0.4 0.4zM649.7 778.9c0.1 0.1 0.1 0.2 0.2 0.3-0.1 0-0.1-0.1-0.2-0.3zM771.2 661.3c-0.1 0-0.3 0-0.4-0.1 0.1 0 0.2 0.1 0.4 0.1zM775.6 663c-0.8-0.5-1.6-0.8-2.4-1.1 0.9 0.3 1.7 0.7 2.4 1.1zM649.3 777.7c0 0.1 0.1 0.2 0.1 0.3-0.1-0.1-0.1-0.2-0.1-0.3zM651 781.1c0.1 0.1 0.2 0.3 0.3 0.4-0.1-0.1-0.2-0.2-0.3-0.4zM648.7 775.1v0.3c0.1-0.1 0.1-0.2 0-0.3zM772.8 661.8c-0.2-0.1-0.4-0.1-0.7-0.2 0.3 0 0.5 0.1 0.7 0.2zM650.2 780c0.1 0.1 0.1 0.2 0.2 0.4 0-0.2-0.1-0.3-0.2-0.4zM648.9 752.5c-0.1 0.3-0.1 0.7-0.1 1.1 0-0.4 0-0.8 0.1-1.1zM744.2 661.5c-0.4 0.1-0.7 0.2-1.1 0.3 0.4-0.1 0.7-0.2 1.1-0.3zM649 776.5v0zM746.6 661.1c-0.3 0-0.5 0.1-0.8 0.1 0.2-0.1 0.5-0.1 0.8-0.1zM653.3 783.7c0.3 0.3 0.6 0.5 1 0.8-0.4-0.3-0.7-0.5-1-0.8zM651.6 782c0.2 0.3 0.4 0.5 0.6 0.7-0.2-0.2-0.4-0.5-0.6-0.7zM653.1 783.5l-0.5-0.5c0.1 0.2 0.3 0.3 0.5 0.5zM745.3 661.2c-0.3 0.1-0.7 0.1-1 0.2 0.4 0 0.7-0.1 1-0.2zM649 776.5c-0.1-0.4-0.1-0.8-0.2-1.1 0 0.4 0.1 0.7 0.2 1.1zM744.2 661.5h0zM649.3 777.7l-0.3-0.9c0.1 0.2 0.2 0.5 0.3 0.9zM648.7 775.1c0-0.4-0.1-0.8-0.1-1.2 0.1 0.4 0.1 0.8 0.1 1.2zM648.7 754.7c0-0.4 0-0.8 0.1-1.1-0.1 0.3-0.1 0.7-0.1 1.1zM649.7 778.9c-0.1-0.3-0.3-0.7-0.4-1 0.2 0.4 0.3 0.7 0.4 1zM743.1 661.8zM653.3 783.7c-0.1-0.1-0.2-0.1-0.2-0.2 0 0.1 0.1 0.1 0.2 0.2zM650.2 780c-0.1-0.2-0.2-0.4-0.3-0.7 0.1 0.2 0.2 0.4 0.3 0.7zM655.1 785zM654.5 784.6c-0.1-0.1-0.2-0.1-0.2-0.2 0.1 0.1 0.1 0.2 0.2 0.2zM651 781.1c-0.2-0.3-0.4-0.5-0.5-0.8 0.1 0.3 0.3 0.6 0.5 0.8zM652.6 783l-0.3-0.3 0.3 0.3zM651.6 782c-0.1-0.1-0.2-0.3-0.3-0.4 0.1 0.1 0.2 0.2 0.3 0.4zM648.9 752.5zM746.6 661.1c0.4 0 0.9-0.1 1.3-0.1-0.5 0-0.9 0-1.3 0.1zM772.8 661.8c0.1 0 0.3 0.1 0.4 0.1-0.1-0.1-0.2-0.1-0.4-0.1zM768.2 661c0.4 0 0.8 0 1.3 0.1-0.4-0.1-0.9-0.1-1.3-0.1zM769.9 661.1c0.3 0 0.6 0.1 0.9 0.1-0.3 0-0.6-0.1-0.9-0.1zM771.2 661.3c0.3 0.1 0.7 0.2 1 0.2-0.3 0-0.7-0.1-1-0.2zM745.3 661.2c0.1 0 0.3 0 0.5-0.1-0.2 0.1-0.3 0.1-0.5 0.1zM766.9 713.4c-0.5-0.1-0.9-0.1-1.4-0.2 0.5 0.1 0.9 0.1 1.4 0.2zM775.6 715.5c-2.6-0.8-5.3-1.5-8-2 2.8 0.5 5.5 1.2 8 2zM764.3 713.1c-0.4 0-0.8-0.1-1.2-0.1 0.4 0 0.8 0 1.2 0.1zM753 713c-0.4 0-0.8 0.1-1.2 0.1 0.3-0.1 0.7-0.1 1.2-0.1zM750.2 713.3c-0.5 0.1-0.9 0.1-1.4 0.2 0.5-0.1 0.9-0.2 1.4-0.2zM743.1 714.7c1.6-0.4 3.3-0.8 5-1.1-1.7 0.3-3.3 0.7-5 1.1zM755.6 712.8h-0.8 0.8zM761.6 712.9c-0.3 0-0.6 0-0.9-0.1 0.2 0 0.5 0 0.9 0.1zM703.6 759.7c0 0.2 0 0.4-0.1 0.6 0.1-0.3 0.1-0.4 0.1-0.6zM704.4 754.4c-0.1 0.3-0.1 0.5-0.2 0.8 0.1-0.2 0.1-0.5 0.2-0.8zM703.9 757.3c0 0.2 0 0.4-0.1 0.6 0-0.3 0-0.4 0.1-0.6zM703.6 768.5c0.1 0.7 0.1 1.4 0.2 2-0.1-0.6-0.2-1.3-0.2-2zM703.4 762.5v0zM704.7 775.7c0.2 0.8 0.4 1.6 0.6 2.3-0.2-0.8-0.4-1.5-0.6-2.3zM705.3 778c0.7 2.4 1.6 4.8 2.7 7-1-2.2-1.9-4.6-2.7-7zM704.2 773.4c0.1 0.7 0.3 1.5 0.5 2.2-0.2-0.8-0.3-1.5-0.5-2.2zM703.4 765.4c0 0.9 0.1 1.7 0.1 2.6-0.1-0.9-0.1-1.7-0.1-2.6zM703.8 771l0.3 2.1-0.3-2.1zM703.6 768.5c0-0.2 0-0.3-0.1-0.5 0 0.2 0 0.3 0.1 0.5zM750.2 713.3c0.5-0.1 1-0.1 1.5-0.2-0.5 0-1 0.1-1.5 0.2zM748.1 713.6c0.2 0 0.4-0.1 0.7-0.1-0.2 0-0.4 0.1-0.7 0.1zM753 713c0.6-0.1 1.2-0.1 1.8-0.1-0.6 0-1.2 0-1.8 0.1zM703.8 771c0-0.1 0-0.3-0.1-0.4 0.1 0.1 0.1 0.2 0.1 0.4zM743.1 714.7zM755.6 712.8c0.8 0 1.7-0.1 2.5-0.1-0.9 0-1.7 0.1-2.5 0.1z" p-id="1589" fill="#cdcdcd"></path><path d="M703.4 762.5c0-0.8 0.1-1.5 0.1-2.2 0 0.7-0.1 1.4-0.1 2.2zM703.9 757.3c0.1-0.7 0.2-1.4 0.3-2-0.1 0.6-0.2 1.3-0.3 2zM703.4 765.4V763v2.4zM704.8 752.5c-0.2 0.6-0.3 1.3-0.4 1.9 0.1-0.6 0.3-1.3 0.4-1.9zM703.6 759.7c0.1-0.6 0.1-1.2 0.2-1.9-0.1 0.6-0.1 1.3-0.2 1.9zM775.6 715.5zM704.2 773.4c0-0.1 0-0.2-0.1-0.3 0.1 0.1 0.1 0.2 0.1 0.3zM766.9 713.4c0.2 0 0.5 0.1 0.7 0.1-0.2 0-0.5 0-0.7-0.1zM758 712.7c0.9 0 1.7 0 2.6 0.1-0.8 0-1.7-0.1-2.6-0.1zM705.3 778zM704.7 775.7v-0.1 0.1zM761.6 712.9c0.5 0 1 0.1 1.5 0.1-0.5-0.1-1-0.1-1.5-0.1zM764.3 713.1c0.4 0 0.8 0.1 1.2 0.1-0.4 0-0.8-0.1-1.2-0.1zM295.7 456c-9.9 0-17.9 7.6-17.9 17.1v201.1c0 9.4 8 17.1 17.9 17.1 9.9 0 17.9-7.6 17.9-17.2v-201c-0.1-9.4-8.1-17.1-17.9-17.1zM307.8 129.6c-35.9-4.3-62 3.7-73.7 22.7-4.9 8.1-9.2 21.9-2 41.4 4.7 12.6 13.4 25.9 26 39.4L285 211c-18.8-20.3-23.5-35.9-19.9-41.8 6.8-11.2 57.3-12.8 125.4 24.3 22.1 12 41.9 26.1 57.2 40.8l25.4-23.8c-17.6-16.7-40-32.7-64.8-46.2-34.1-18.7-69.9-31-100.5-34.7zM688.3 169.1c3.6 5.9-1.1 21.6-20 41.9l26.9 22.2c12.7-13.6 21.4-26.8 26.1-39.4 7.3-19.6 3-33.4-2-41.4-11.6-19-37.8-27.1-73.7-22.7-30.6 3.7-66.3 16-100.6 34.7-24.6 13.4-46.9 29.3-64.5 45.9l25.3 23.8c15.3-14.5 35-28.5 57-40.6 29.8-16.3 61.6-27.3 87.2-30.4 22.2-2.9 35.3 1 38.3 6z" p-id="1590" fill="#cdcdcd"></path><path d="M758 695c-42.1 0-76.1 33.6-73.3 73.8 2.4 34.7 31.9 62.5 68.6 64.7 42.6 2.5 78.1-29.5 78.1-69.2 0-38.2-32.9-69.3-73.4-69.3z m-1.1 120.9c-29.2-0.5-52.9-22.9-53.5-50.5-0.7-28.9 24.1-52.7 54.7-52.7 30.1 0 54.6 23.1 54.6 51.5 0 28.9-25.2 52.3-55.8 51.7z" p-id="1591" fill="#cdcdcd"></path><path d="M867.4 725.3h-2.9c-1.1 0-2.1-0.6-2.5-1.6-0.4-1-0.2-2.1 0.6-2.8l4-3.8c5.1-4.8 7.9-11.2 7.9-18 0-6.8-2.8-13.2-7.9-18l-20.3-19.2c-5.1-4.8-11.9-7.4-19.1-7.4-7.2 0-14 2.6-19.1 7.4l-4 3.8c-0.8 0.7-2 1-2.9 0.6-1-0.4-1.7-1.3-1.7-2.4V661c0-15.5-13.3-28-29.7-28h-23.3c-16.4 0-29.7 12.5-29.7 28v2.8c0 1-0.7 2-1.7 2.4-1 0.4-2.2 0.2-2.9-0.6l-4-3.8c-5.1-4.8-11.9-7.4-19.1-7.4-7.2 0-14 2.6-19.1 7.4L649.7 681c-5.1 4.8-7.9 11.2-7.9 18 0 6.8 2.8 13.2 7.9 18l4 3.8c0.8 0.7 1 1.8 0.6 2.8-0.4 1-1.4 1.6-2.5 1.6h-3.1c-16.4 0-29.7 12.5-29.7 28.1v22c0 15.5 13.3 28.1 29.7 28.1h2.9c1.1 0 2.1 0.6 2.5 1.6 0.4 1 0.2 2.1-0.6 2.8l-4 3.8c-5.1 4.8-7.9 11.2-7.9 18 0 6.8 2.8 13.2 7.9 18l20.3 19.2c5.1 4.8 11.9 7.4 19.1 7.4 7.2 0 14-2.6 19.1-7.4l4-3.8c0.8-0.7 2-0.9 2.9-0.6 1 0.4 1.7 1.3 1.7 2.4v2.8c0 15.5 13.3 28 29.7 28h23.3c16.4 0 29.7-12.5 29.7-28v-2.8c0-1 0.7-2 1.7-2.4 1-0.4 2.2-0.2 2.9 0.6l4 3.8c5.1 4.8 11.9 7.4 19.1 7.4 7.2 0 14-2.6 19.1-7.4l20.4-19.2c5.1-4.8 7.9-11.2 7.9-18 0-6.8-2.8-13.2-7.9-18l-3.9-3.8c-0.8-0.7-1-1.8-0.6-2.8 0.4-1 1.4-1.6 2.5-1.6h2.9c16.4 0 29.7-12.5 29.7-28.1v-22c0-15.5-13.3-28-29.7-28z m0 48.6c-0.1 7.3-6.3 13.3-14.1 13.3h-10.8c-1 0-1.9 0.6-2.2 1.5l-0.8 2.3c-1.1 3-2.4 6-3.9 8.9l-1.1 2.1c-0.4 0.8-0.2 1.9 0.5 2.6l9.3 8.8c2.2 2.1 3.4 4.9 3.4 7.8 0 2.9-1.2 5.7-3.4 7.8l-17.7 16.7c-2.2 2.1-5.1 3.2-8.3 3.2-3.1 0-6.1-1.1-8.3-3.2l-9.3-8.8c-0.7-0.7-1.8-0.8-2.7-0.4l-2.3 1c-3 1.4-6.2 2.6-9.5 3.7l-2.4 0.8c-0.9 0.3-1.6 1.1-1.6 2.1v12.4c0 6.1-5.2 11-11.7 11h-22.7c-7.7 0-14-5.9-14-13.3V844c0-0.9-0.6-1.8-1.6-2.1l-2.4-0.8c-3.2-1-6.4-2.3-9.5-3.7l-2.3-1c-0.9-0.4-2-0.3-2.7 0.4l-9.3 8.8c-2.2 2.1-5.1 3.2-8.3 3.2-3.1 0-6.1-1.1-8.2-3.2l-17.7-16.7c-2.2-2.1-3.4-4.9-3.4-7.8 0-3 1.2-5.7 3.4-7.8l9.3-8.8c0.7-0.7 0.9-1.7 0.5-2.6l-1.1-2.1c-1.5-2.9-2.8-5.9-3.9-8.9l-0.8-2.3c-0.3-0.9-1.2-1.5-2.2-1.5h-10.8c-7.8 0-14-5.9-14-13.3v-19.2c0-7.3 6.3-13.3 14-13.3h10.8c1 0 1.9-0.6 2.2-1.5l0.8-2.3c1.1-3.1 2.4-6.1 3.9-8.9l1.1-2.1c0.4-0.9 0.3-1.9-0.5-2.6l-9.3-8.8c-2.2-2.1-3.4-4.9-3.4-7.8 0-2.9 1.2-5.7 3.4-7.8l17.7-16.8c2.2-2.1 5.1-3.2 8.2-3.2 3.1 0 6.1 1.1 8.3 3.2l9.3 8.8c0.7 0.7 1.8 0.8 2.7 0.4l2.3-1c3.1-1.4 6.2-2.7 9.5-3.7l2.4-0.8c0.9-0.3 1.6-1.2 1.6-2.1v-10.2c0-7.3 6.3-13.3 14-13.3h20.3c7.7 0 14 5.9 14 13.3v10.2c0 0.9 0.6 1.8 1.6 2.1l2.4 0.8c3.2 1 6.4 2.3 9.5 3.7l2.3 1c0.9 0.4 2 0.2 2.7-0.4l9.3-8.8c2.2-2.1 5.1-3.2 8.3-3.2 3.1 0 6.1 1.2 8.3 3.2l17.7 16.7c2.2 2.1 3.4 4.8 3.4 7.8 0 2.9-1.2 5.7-3.4 7.8l-9.3 8.8c-0.7 0.7-0.9 1.7-0.5 2.6l1.1 2.1c1.5 2.9 2.8 5.9 3.9 8.9l0.8 2.3c0.3 0.9 1.2 1.5 2.2 1.5h10.8c7.8 0 14 5.9 14 13.3v19.4z" p-id="1592" fill="#cdcdcd"></path></svg>