<?xml version="1.0" standalone="no"?><!DOCTYPE svg PUBLIC "-//W3C//DTD SVG 1.1//EN" "http://www.w3.org/Graphics/SVG/1.1/DTD/svg11.dtd"><svg t="1529133218373" class="icon" style="" viewBox="0 0 1024 1024" version="1.1" xmlns="http://www.w3.org/2000/svg" p-id="2288" xmlns:xlink="http://www.w3.org/1999/xlink" width="200" height="200"><defs><style type="text/css"></style></defs><path d="M823.854545 800.581818c83.781818-83.781818 134.981818-200.145455 134.981819-330.472727 0-260.654545-209.454545-470.109091-465.454546-470.109091S32.581818 209.454545 32.581818 470.109091s209.454545 470.109091 460.8 470.109091c102.4 0 195.490909-32.581818 274.618182-93.090909l172.218182 176.872727 51.2-51.2-167.563637-172.218182z m-330.472727 65.163637c-214.109091 0-390.981818-176.872727-390.981818-395.636364S279.272727 74.472727 493.381818 74.472727c214.109091 0 390.981818 176.872727 390.981818 395.636364s-176.872727 395.636364-390.981818 395.636364z" p-id="2289" fill="#1296db"></path><path d="M670.254545 390.981818c-4.654545-51.2-27.927273-111.709091-134.981818-111.709091H363.054545c-4.654545-4.654545-9.309091 0-9.30909 4.654546v377.018182h60.50909v-158.254546h88.436364l130.327273 158.254546 55.854545-32.581819-111.709091-130.327272c74.472727-13.963636 93.090909-65.163636 93.090909-107.054546z m-144.290909 55.854546H414.254545V335.127273h111.709091C605.090909 335.127273 605.090909 372.363636 605.090909 390.981818c0 13.963636 0 27.927273-9.309091 37.236364-13.963636 13.963636-37.236364 18.618182-69.818182 18.618182z" p-id="2290" fill="#1296db"></path></svg>