<?xml version="1.0" standalone="no"?><!DOCTYPE svg PUBLIC "-//W3C//DTD SVG 1.1//EN" "http://www.w3.org/Graphics/SVG/1.1/DTD/svg11.dtd"><svg t="1521108869107" class="icon" style="" viewBox="0 0 1024 1024" version="1.1" xmlns="http://www.w3.org/2000/svg" p-id="8707" xmlns:xlink="http://www.w3.org/1999/xlink" width="200" height="200"><defs><style type="text/css"></style></defs><path d="M508.770423 10.469033C231.770945 10.469033 7.225005 235.014972 7.225005 512.01445c0 276.977803 224.545939 501.516517 501.545417 501.516517 276.985028 0 501.530967-224.538714 501.530967-501.516517C1010.30139 235.014972 785.755451 10.469033 508.770423 10.469033zM508.770423 989.074324c-263.481493 0-477.074324-213.592831-477.074324-477.059874 0-263.481493 213.592831-477.074324 477.074324-477.074324s477.067099 213.592831 477.067099 477.074324C985.837522 775.488718 772.251916 989.074324 508.770423 989.074324z" p-id="8708" fill="#ffffff"></path><path d="M775.821068 470.48512 775.821068 449.019629 629.854286 449.019629 740.982093 185.863261 721.214478 177.50393 606.568094 449.019629 519.485105 449.019629 498.034065 449.019629 414.346828 449.019629 299.700445 177.50393 279.93283 185.863261 391.060636 449.019629 241.712552 449.019629 241.712552 470.48512 498.034065 470.48512 498.034065 604.841318 241.712552 604.841318 241.712552 626.299584 498.034065 626.299584 498.034065 882.621096 519.485105 882.621096 519.485105 626.299584 775.821068 626.299584 775.821068 604.841318 519.485105 604.841318 519.485105 470.48512Z" p-id="8709" fill="#ffffff"></path></svg>