<?xml version="1.0" standalone="no"?><!DOCTYPE svg PUBLIC "-//W3C//DTD SVG 1.1//EN" "http://www.w3.org/Graphics/SVG/1.1/DTD/svg11.dtd"><svg t="1535708965301" class="icon" style="" viewBox="0 0 1118 1024" version="1.1" xmlns="http://www.w3.org/2000/svg" p-id="2033" xmlns:xlink="http://www.w3.org/1999/xlink" width="54.58984375" height="50"><defs><style type="text/css"></style></defs><path d="M996.913168 269.101783a67.717079 67.717079 0 0 0-77.138585 7.06613l-165.46521 141.322599-137.789534-213.161587a71.250144 71.250144 0 0 0-113.646924 0L365.083381 417.490512l-166.054054-141.322599a67.717079 67.717079 0 0 0-110.113858 63.595169L176.653249 855.001725a67.717079 67.717079 0 0 0 66.53939 55.940196h629.474411a67.717079 67.717079 0 0 0 69.483611-55.940196l90.682001-515.238643a67.717079 67.717079 0 0 0-35.919494-70.661299z m-117.768832 575.889591a8.832662 8.832662 0 0 1-8.832663 7.06613H246.13686a8.832662 8.832662 0 0 1-10.599195-7.06613L146.622197 329.752731a8.832662 8.832662 0 0 1 4.121909-8.832662h4.710753a8.832662 8.832662 0 0 1 5.299598 0l217.283496 184.897067L552.335825 235.537665a11.188039 11.188039 0 0 1 14.721104 0l176.653249 269.690627 216.694652-184.308223a8.832662 8.832662 0 0 1 10.010351 0 8.243818 8.243818 0 0 1 4.121909 8.832662z" fill="#153545" p-id="2034"></path><path d="M62.417481 186.6636m-62.417481 0a62.417481 62.417481 0 1 0 124.834963 0 62.417481 62.417481 0 1 0-124.834963 0Z" fill="#153545" p-id="2035"></path><path d="M1056.386429 186.6636m-62.417481 0a62.417481 62.417481 0 1 0 124.834962 0 62.417481 62.417481 0 1 0-124.834962 0Z" fill="#153545" p-id="2036"></path><path d="M559.401955 62.417481m-62.417481 0a62.417481 62.417481 0 1 0 124.834962 0 62.417481 62.417481 0 1 0-124.834962 0Z" fill="#153545" p-id="2037"></path><path d="M901.520414 965.115584H217.283496a29.442208 29.442208 0 0 0 0 58.884416h684.236918a29.442208 29.442208 0 1 0 0-58.884416z" fill="#153545" p-id="2038"></path></svg>