<?xml version="1.0" standalone="no"?><!DOCTYPE svg PUBLIC "-//W3C//DTD SVG 1.1//EN" "http://www.w3.org/Graphics/SVG/1.1/DTD/svg11.dtd"><svg t="1529748164511" class="icon" style="" viewBox="0 0 1024 1024" version="1.1" xmlns="http://www.w3.org/2000/svg" p-id="1992" xmlns:xlink="http://www.w3.org/1999/xlink" width="200" height="200"><defs><style type="text/css"></style></defs><path d="M511.999488 127.321804c-212.087373 0-384.018164 171.915441-384.018164 384.018164 0 212.069977 171.931814 384.018164 384.018164 384.018164s384.018164-171.948187 384.018164-384.018164C896.017652 299.237245 724.086861 127.321804 511.999488 127.321804zM511.999488 716.954929c-24.734334 0-44.774763-20.025079-44.774763-44.686758 0-24.665773 20.040429-44.655036 44.774763-44.655036s44.791136 19.989263 44.791136 44.655036C556.790624 696.92985 536.733822 716.954929 511.999488 716.954929zM556.790624 523.378142c0 24.663726-20.057825 44.669362-44.791136 44.669362s-44.774763-20.006659-44.774763-44.669362l0-208.478172c0-24.663726 20.040429-44.654013 44.774763-44.654013s44.791136 19.990287 44.791136 44.654013L556.790624 523.378142z" p-id="1993" fill="#eae31c"></path></svg>