<?xml version="1.0" standalone="no"?><!DOCTYPE svg PUBLIC "-//W3C//DTD SVG 1.1//EN" "http://www.w3.org/Graphics/SVG/1.1/DTD/svg11.dtd"><svg t="1532744328173" class="icon" style="" viewBox="0 0 1024 1024" version="1.1" xmlns="http://www.w3.org/2000/svg" p-id="605" xmlns:xlink="http://www.w3.org/1999/xlink" width="200" height="200"><defs><style type="text/css">@font-face { font-family: uc-nexus-iconfont; src: url("chrome-extension://pogijhnlcfmcppgimcaccdkmbedjkmhi/res/font_9qmmi8b8jsxxbt9.woff") format("woff"), url("chrome-extension://pogijhnlcfmcppgimcaccdkmbedjkmhi/res/font_9qmmi8b8jsxxbt9.ttf") format("truetype"); }
</style></defs><path d="M890.534 325.405c1.281-5.117 1.98-10.476 1.98-16.057v-146.645c0.004-46.609-51.28-97.76-98.615-97.76h-147.909c-29.677 0-70.587 10.499-96.987 29.818-10.251 5.69-19.3 12.189-26.277 19.061l-366.58 362.049c-33.458 32.959-33.458 86.393 0 119.358l194.014 178.5c33.462 32.96 114.443 32.96 147.916 0l369.78-366.62c21.926-21.595 29.485-53.202 22.679-81.705zM550.093 464.089l57.245 57.245-29.637 29.632-56.892-56.894-42.928 42.933 57.066 57.069-28.402 28.401-57.331-57.335-57.599 57.6-57.59-57.59 57.462-57.467-58.783-58.784 28.663-28.663 58.783 58.784 42.932-42.933-58.915-58.915 29.193-29.198 58.658 58.653 47.327-187.889 37.696 37.694-39.141 163.409 162.431-40.116 36.283 36.285-186.522 48.081zM818.555 236.028c-22.316 21.97-76.293 21.97-98.615 0-22.302-21.975-22.302-75.79 0-97.76 22.321-21.974 76.298-21.974 98.615 0 22.315 21.97 22.315 75.785 0 97.76zM351.789 851.491c39.367 41.303 97.376 51.821 149.438-1.745l300.131-297.329-186.618 353.152c-20.707 39.509-77.465 67.028-117.567 46.634l-235.147-116.564c-36.191-18.407-55.35-39.282-32.429-96.665l122.191 112.516z" p-id="606"></path></svg>